# xmcd
#
# Track frame offsets:
#	150
#	23601
#	46725
#	64002
#	91919
#	114293
#	131315
#	149903
#
# Disc length: 2487 seconds
#
# Revision: 2
# Processed by: cddbd v1.5.2PL0 Copyright (c) Steve Scherf et al.
# Submitted via: EasyCDDAExtractor 16.0.4.1
#
DISCID=6209b508
DTITLE=Dżem - Cegła
DYEAR=1985
DGENRE=Blues
TTITLE0=Czerwony jak cegła
TTITLE1=Whisky
TTITLE2=Nieudany skok
TTITLE3=Ballada o dziwnym malarzu
TTITLE4=Jesiony
TTITLE5=Powiał boczny wiatr
TTITLE6=Kim jestem - Jestem sobie
TTITLE7=Oh, Słodka
EXTD=
EXTT0=
EXTT1=
EXTT2=
EXTT3=
EXTT4=
EXTT5=
EXTT6=
EXTT7=
PLAYORDER=
